<?xml version="1.0" encoding="UTF-8"?>
<svg id="_レイヤー_2" data-name="レイヤー 2" xmlns="http://www.w3.org/2000/svg" viewBox="0 0 203.97 121.91">
  <defs>
    <style>
      .cls-1 {
        fill: #7c1f7b;
      }

      .cls-2 {
        fill: #004c80;
      }
    </style>
  </defs>
  <g id="_レイヤー_4" data-name="レイヤー 4">
    <g>
      <rect class="cls-2" x="0" width="42.52" height="42.52"/>
      <polygon class="cls-2" points="57.38 61.37 76.87 82.82 36.41 80.88 36.43 80.4 57.38 61.37"/>
      <polygon class="cls-2" points="42.52 76.24 42.52 121.42 0 121.42 0 47.26 14.22 47.26 13.88 47.6 42.52 76.24"/>
      <rect class="cls-2" x="61.26" y="-14.17" width="42.52" height="70.87" transform="translate(61.26 103.78) rotate(-90)"/>
      <g>
        <polygon class="cls-1" points="148.33 47.75 109.5 86.58 102.48 93.59 74.16 121.91 42.52 90.27 0 47.75 .5 47.26 14.22 47.26 13.88 47.6 74.01 107.73 95.32 86.43 102.33 79.41 134.14 47.6 133.8 47.26 147.83 47.26 148.33 47.75"/>
        <polygon class="cls-1" points="203.97 47.75 190.25 47.75 130.46 107.54 70.67 47.75 56.64 47.75 130.3 121.42 203.97 47.75"/>
      </g>
    </g>
  </g>
</svg>