<?xml version="1.0" encoding="UTF-8"?>
<svg id="_レイヤー_2" data-name="レイヤー 2" xmlns="http://www.w3.org/2000/svg" viewBox="0 0 489.18 175.34">
  <defs>
    <style>
      .cls-1 {
        fill: #7c1f7b;
      }

      .cls-2 {
        fill: #4f4f4f;
      }

      .cls-3 {
        fill: #004c80;
      }
    </style>
  </defs>
  <g id="_レイヤー_4" data-name="レイヤー 4">
    <rect class="cls-3" x="28.87" y="7.73" width="42.52" height="42.52"/>
    <polygon class="cls-3" points="86.25 69.09 105.73 90.54 65.28 88.6 65.3 88.12 86.25 69.09"/>
    <polygon class="cls-3" points="71.39 83.96 71.39 129.15 28.87 129.15 28.87 54.99 43.09 54.99 42.75 55.33 71.39 83.96"/>
    <rect class="cls-3" x="90.12" y="-6.45" width="42.52" height="70.87" transform="translate(82.4 140.37) rotate(-90)"/>
    <g>
      <polygon class="cls-1" points="177.2 55.47 138.37 94.3 131.35 101.32 103.03 129.63 71.39 98 28.87 55.47 29.37 54.99 43.09 54.99 42.75 55.33 102.88 115.46 124.19 94.16 131.2 87.13 163.01 55.33 162.67 54.99 176.7 54.99 177.2 55.47"/>
      <polygon class="cls-1" points="232.84 55.48 219.11 55.48 159.32 115.26 99.53 55.48 85.5 55.48 159.17 129.14 232.84 55.48"/>
    </g>
    <path class="cls-2" d="M203.9,100.48c0-10.33,6.97-17.04,16.98-17.04s17.24,6.97,17.24,17.11c0,10.91-8.13,16.46-15.88,16.46-4.58,0-8.39-1.94-10.65-5.49v18.27h-7.68v-29.31ZM230.36,100.22c0-5.62-3.81-9.62-9.43-9.62s-9.36,4-9.36,9.62,3.75,9.62,9.36,9.62,9.43-4,9.43-9.62Z"/>
    <path class="cls-2" d="M241.86,100.22c0-9.68,7.1-16.79,17.17-16.79s17.17,7.1,17.17,16.79-7.1,16.79-17.17,16.79-17.17-7.1-17.17-16.79ZM268.39,100.22c0-5.62-3.74-9.62-9.36-9.62s-9.43,4-9.43,9.62,3.81,9.62,9.43,9.62,9.36-4,9.36-9.62Z"/>
    <path class="cls-2" d="M281.25,97.64c0-9.62,5.68-14.2,14.01-14.2s13.95,4.58,13.95,14.33v.19h-7.62v-.32c0-5.16-2.58-7.04-6.33-7.04s-6.33,1.87-6.33,7.04v18.53h-7.68v-18.53Z"/>
    <path class="cls-2" d="M313.34,103.9v-30.92h7.68v11.3h16.46v6.97h-16.46v12.65c0,4.26,2.2,5.94,5.36,5.94s5.36-1.61,5.36-5.94v-.84h7.68v.84c0,8.84-5.29,13.11-13.04,13.11s-13.04-4.26-13.04-13.11Z"/>
    <path class="cls-2" d="M345.36,83.57c0-9.43,5.68-14.07,14.01-14.07s13.94,4.71,13.94,14.14h-7.62c0-5.04-2.58-6.97-6.33-6.97s-6.33,2-6.33,6.91v5.16h16.4v6.97h-16.4v20.47h-7.68v-32.6Z"/>
    <path class="cls-2" d="M374.93,100.22c0-9.68,7.1-16.79,17.17-16.79s17.17,7.1,17.17,16.79-7.1,16.79-17.17,16.79-17.17-7.1-17.17-16.79ZM401.47,100.22c0-5.62-3.74-9.62-9.36-9.62s-9.43,4-9.43,9.62,3.81,9.62,9.43,9.62,9.36-4,9.36-9.62Z"/>
    <path class="cls-2" d="M415.42,70.33h7.68v45.84h-7.68v-45.84Z"/>
    <path class="cls-2" d="M430.4,75.05c0-2.97,2.13-5.17,5.1-5.17s5.1,2.2,5.1,5.17-2.13,5.1-5.1,5.1-5.1-2.13-5.1-5.1ZM431.62,84.28h7.68v31.89h-7.68v-31.89Z"/>
    <path class="cls-2" d="M445.44,100.22c0-9.68,7.1-16.79,17.17-16.79s17.17,7.1,17.17,16.79-7.1,16.79-17.17,16.79-17.17-7.1-17.17-16.79ZM471.97,100.22c0-5.62-3.74-9.62-9.36-9.62s-9.43,4-9.43,9.62,3.81,9.62,9.43,9.62,9.36-4,9.36-9.62Z"/>
    <text/>
  </g>
</svg>